<mxfile host="Electron" agent="Mozilla/5.0 (X11; Linux x86_64) AppleWebKit/537.36 (KHTML, like Gecko) draw.io/26.2.2 Chrome/134.0.6998.178 Electron/35.1.2 Safari/537.36" version="26.2.2">
  <diagram name="Page-1" id="E6U0oUtBzk2lT01lFc9U">
    <mxGraphModel dx="2860" dy="1719" grid="1" gridSize="10" guides="1" tooltips="1" connect="1" arrows="1" fold="1" page="1" pageScale="1" pageWidth="1654" pageHeight="1169" math="0" shadow="0">
      <root>
        <mxCell id="0" />
        <mxCell id="1" parent="0" />
        <mxCell id="VOlWO4rqHQWdw9jCDzSI-1" value="" style="group;fontSize=24;" vertex="1" connectable="0" parent="1">
          <mxGeometry x="40" y="20" width="1548.44" height="670" as="geometry" />
        </mxCell>
        <mxCell id="JV65rO91cUyTu4-_sWcS-1" value="Experiment" style="rounded=0;whiteSpace=wrap;html=1;rotation=0;fontSize=24;" parent="VOlWO4rqHQWdw9jCDzSI-1" vertex="1">
          <mxGeometry width="1548.44" height="89.33333333333334" as="geometry" />
        </mxCell>
        <mxCell id="JV65rO91cUyTu4-_sWcS-4" value="Settings YAML" style="rounded=0;whiteSpace=wrap;html=1;fontSize=24;" parent="VOlWO4rqHQWdw9jCDzSI-1" vertex="1">
          <mxGeometry y="312.6666666666667" width="178.66615384615383" height="89.33333333333334" as="geometry" />
        </mxCell>
        <mxCell id="JV65rO91cUyTu4-_sWcS-5" value="Dataset" style="rounded=0;whiteSpace=wrap;html=1;fontSize=24;" parent="VOlWO4rqHQWdw9jCDzSI-1" vertex="1">
          <mxGeometry x="208.44384615384615" y="312.6666666666667" width="178.66615384615383" height="89.33333333333334" as="geometry" />
        </mxCell>
        <mxCell id="JV65rO91cUyTu4-_sWcS-57" style="edgeStyle=orthogonalEdgeStyle;rounded=0;orthogonalLoop=1;jettySize=auto;html=1;exitX=1;exitY=0.5;exitDx=0;exitDy=0;fontSize=24;" parent="VOlWO4rqHQWdw9jCDzSI-1" source="JV65rO91cUyTu4-_sWcS-9" edge="1">
          <mxGeometry relative="1" as="geometry">
            <mxPoint x="372.22115384615387" y="402" as="targetPoint" />
          </mxGeometry>
        </mxCell>
        <mxCell id="JV65rO91cUyTu4-_sWcS-9" value="KernelSynth" style="rounded=0;whiteSpace=wrap;html=1;fontSize=24;" parent="VOlWO4rqHQWdw9jCDzSI-1" vertex="1">
          <mxGeometry x="223.3326923076923" y="521.1111111111111" width="119.11076923076922" height="59.55555555555556" as="geometry" />
        </mxCell>
        <mxCell id="JV65rO91cUyTu4-_sWcS-10" value="NIXTLA" style="rounded=0;whiteSpace=wrap;html=1;fontSize=24;" parent="VOlWO4rqHQWdw9jCDzSI-1" vertex="1">
          <mxGeometry x="223.3326923076923" y="431.77777777777777" width="119.11076923076922" height="59.55555555555556" as="geometry" />
        </mxCell>
        <mxCell id="JV65rO91cUyTu4-_sWcS-11" value="Model" style="rounded=0;whiteSpace=wrap;html=1;fontSize=24;" parent="VOlWO4rqHQWdw9jCDzSI-1" vertex="1">
          <mxGeometry x="431.77653846153845" y="312.6666666666667" width="178.66615384615383" height="89.33333333333334" as="geometry" />
        </mxCell>
        <mxCell id="JV65rO91cUyTu4-_sWcS-12" value="SmolLM..." style="rounded=0;whiteSpace=wrap;html=1;fontSize=24;" parent="VOlWO4rqHQWdw9jCDzSI-1" vertex="1">
          <mxGeometry x="431.77653846153845" y="431.77777777777777" width="119.11076923076922" height="59.55555555555556" as="geometry" />
        </mxCell>
        <mxCell id="JV65rO91cUyTu4-_sWcS-13" value="LLama..." style="rounded=0;whiteSpace=wrap;html=1;fontSize=24;" parent="VOlWO4rqHQWdw9jCDzSI-1" vertex="1">
          <mxGeometry x="431.77653846153845" y="521.1111111111111" width="119.11076923076922" height="59.55555555555556" as="geometry" />
        </mxCell>
        <mxCell id="JV65rO91cUyTu4-_sWcS-21" value="Pre-Tokenizer" style="rounded=0;whiteSpace=wrap;html=1;fontSize=24;" parent="VOlWO4rqHQWdw9jCDzSI-1" vertex="1">
          <mxGeometry x="655.1092307692307" y="312.6666666666667" width="178.66615384615383" height="89.33333333333334" as="geometry" />
        </mxCell>
        <mxCell id="JV65rO91cUyTu4-_sWcS-22" value="fABBA" style="rounded=0;whiteSpace=wrap;html=1;fontSize=24;" parent="VOlWO4rqHQWdw9jCDzSI-1" vertex="1">
          <mxGeometry x="655.1092307692307" y="431.77777777777777" width="119.11076923076922" height="59.55555555555556" as="geometry" />
        </mxCell>
        <mxCell id="JV65rO91cUyTu4-_sWcS-23" value="LLM-ABBA" style="rounded=0;whiteSpace=wrap;html=1;fontSize=24;" parent="VOlWO4rqHQWdw9jCDzSI-1" vertex="1">
          <mxGeometry x="655.1092307692307" y="521.1111111111111" width="119.11076923076922" height="59.55555555555556" as="geometry" />
        </mxCell>
        <mxCell id="JV65rO91cUyTu4-_sWcS-53" style="edgeStyle=orthogonalEdgeStyle;rounded=0;orthogonalLoop=1;jettySize=auto;html=1;exitX=1;exitY=0.5;exitDx=0;exitDy=0;fontSize=24;" parent="VOlWO4rqHQWdw9jCDzSI-1" source="JV65rO91cUyTu4-_sWcS-24" edge="1">
          <mxGeometry relative="1" as="geometry">
            <mxPoint x="803.9976923076923" y="402" as="targetPoint" />
          </mxGeometry>
        </mxCell>
        <mxCell id="JV65rO91cUyTu4-_sWcS-24" value="LLMTIME" style="rounded=0;whiteSpace=wrap;html=1;fontSize=24;" parent="VOlWO4rqHQWdw9jCDzSI-1" vertex="1">
          <mxGeometry x="655.1092307692307" y="610.4444444444445" width="119.11076923076922" height="59.55555555555556" as="geometry" />
        </mxCell>
        <mxCell id="JV65rO91cUyTu4-_sWcS-28" value="Initialize" style="rounded=0;whiteSpace=wrap;html=1;fontSize=24;" parent="VOlWO4rqHQWdw9jCDzSI-1" vertex="1">
          <mxGeometry y="163.77777777777777" width="833.7753846153846" height="89.33333333333334" as="geometry" />
        </mxCell>
        <mxCell id="JV65rO91cUyTu4-_sWcS-29" value="Run" style="rounded=0;whiteSpace=wrap;html=1;fontSize=24;" parent="VOlWO4rqHQWdw9jCDzSI-1" vertex="1">
          <mxGeometry x="893.3307692307692" y="163.77777777777777" width="401.99884615384616" height="89.33333333333334" as="geometry" />
        </mxCell>
        <mxCell id="JV65rO91cUyTu4-_sWcS-32" value="Get Initialize Settings" style="edgeStyle=orthogonalEdgeStyle;rounded=0;orthogonalLoop=1;jettySize=auto;html=1;exitX=0.107;exitY=0.994;exitDx=0;exitDy=0;entryX=0.5;entryY=0;entryDx=0;entryDy=0;exitPerimeter=0;fontSize=24;" parent="VOlWO4rqHQWdw9jCDzSI-1" source="JV65rO91cUyTu4-_sWcS-28" target="JV65rO91cUyTu4-_sWcS-4" edge="1">
          <mxGeometry relative="1" as="geometry" />
        </mxCell>
        <mxCell id="JV65rO91cUyTu4-_sWcS-33" value="Get Dataset" style="edgeStyle=orthogonalEdgeStyle;rounded=0;orthogonalLoop=1;jettySize=auto;html=1;exitX=0.357;exitY=1;exitDx=0;exitDy=0;entryX=0.5;entryY=0;entryDx=0;entryDy=0;exitPerimeter=0;fontSize=24;" parent="VOlWO4rqHQWdw9jCDzSI-1" source="JV65rO91cUyTu4-_sWcS-28" target="JV65rO91cUyTu4-_sWcS-5" edge="1">
          <mxGeometry relative="1" as="geometry" />
        </mxCell>
        <mxCell id="JV65rO91cUyTu4-_sWcS-34" value="Load Model" style="edgeStyle=orthogonalEdgeStyle;rounded=0;orthogonalLoop=1;jettySize=auto;html=1;exitX=0.626;exitY=0.983;exitDx=0;exitDy=0;entryX=0.5;entryY=0;entryDx=0;entryDy=0;exitPerimeter=0;fontSize=24;" parent="VOlWO4rqHQWdw9jCDzSI-1" source="JV65rO91cUyTu4-_sWcS-28" target="JV65rO91cUyTu4-_sWcS-11" edge="1">
          <mxGeometry relative="1" as="geometry" />
        </mxCell>
        <mxCell id="JV65rO91cUyTu4-_sWcS-36" value="Load Tokenizer" style="edgeStyle=orthogonalEdgeStyle;rounded=0;orthogonalLoop=1;jettySize=auto;html=1;exitX=0.892;exitY=0.994;exitDx=0;exitDy=0;entryX=0.5;entryY=0;entryDx=0;entryDy=0;exitPerimeter=0;fontSize=24;" parent="VOlWO4rqHQWdw9jCDzSI-1" source="JV65rO91cUyTu4-_sWcS-28" target="JV65rO91cUyTu4-_sWcS-21" edge="1">
          <mxGeometry relative="1" as="geometry" />
        </mxCell>
        <mxCell id="JV65rO91cUyTu4-_sWcS-40" style="edgeStyle=orthogonalEdgeStyle;rounded=0;orthogonalLoop=1;jettySize=auto;html=1;exitX=0.269;exitY=1.006;exitDx=0;exitDy=0;entryX=0.5;entryY=0;entryDx=0;entryDy=0;exitPerimeter=0;fontSize=24;" parent="VOlWO4rqHQWdw9jCDzSI-1" source="JV65rO91cUyTu4-_sWcS-1" target="JV65rO91cUyTu4-_sWcS-28" edge="1">
          <mxGeometry relative="1" as="geometry" />
        </mxCell>
        <mxCell id="JV65rO91cUyTu4-_sWcS-42" style="edgeStyle=orthogonalEdgeStyle;rounded=0;orthogonalLoop=1;jettySize=auto;html=1;exitX=0.707;exitY=1.006;exitDx=0;exitDy=0;entryX=0.5;entryY=0;entryDx=0;entryDy=0;exitPerimeter=0;fontSize=24;" parent="VOlWO4rqHQWdw9jCDzSI-1" source="JV65rO91cUyTu4-_sWcS-1" target="JV65rO91cUyTu4-_sWcS-29" edge="1">
          <mxGeometry relative="1" as="geometry" />
        </mxCell>
        <mxCell id="JV65rO91cUyTu4-_sWcS-43" value="Save Intermediate Results" style="rounded=0;whiteSpace=wrap;html=1;fontSize=24;" parent="VOlWO4rqHQWdw9jCDzSI-1" vertex="1">
          <mxGeometry x="1116.6634615384614" y="312.6666666666667" width="178.66615384615383" height="89.33333333333334" as="geometry" />
        </mxCell>
        <mxCell id="JV65rO91cUyTu4-_sWcS-45" value="Each Time Series" style="edgeStyle=orthogonalEdgeStyle;rounded=0;orthogonalLoop=1;jettySize=auto;html=1;entryX=0.5;entryY=0;entryDx=0;entryDy=0;fontSize=24;" parent="VOlWO4rqHQWdw9jCDzSI-1" target="JV65rO91cUyTu4-_sWcS-43" edge="1">
          <mxGeometry relative="1" as="geometry">
            <mxPoint x="1205.9965384615384" y="250.13333333333333" as="sourcePoint" />
            <Array as="points">
              <mxPoint x="1205.9965384615384" y="250.13333333333333" />
            </Array>
          </mxGeometry>
        </mxCell>
        <mxCell id="JV65rO91cUyTu4-_sWcS-46" value="Save Experiment Setup" style="rounded=0;whiteSpace=wrap;html=1;fontSize=24;" parent="VOlWO4rqHQWdw9jCDzSI-1" vertex="1">
          <mxGeometry x="893.3307692307692" y="312.6666666666667" width="178.66615384615383" height="89.33333333333334" as="geometry" />
        </mxCell>
        <mxCell id="JV65rO91cUyTu4-_sWcS-47" value="Start" style="edgeStyle=orthogonalEdgeStyle;rounded=0;orthogonalLoop=1;jettySize=auto;html=1;exitX=0.219;exitY=0.977;exitDx=0;exitDy=0;entryX=0.5;entryY=0;entryDx=0;entryDy=0;exitPerimeter=0;fontSize=24;" parent="VOlWO4rqHQWdw9jCDzSI-1" source="JV65rO91cUyTu4-_sWcS-29" target="JV65rO91cUyTu4-_sWcS-46" edge="1">
          <mxGeometry relative="1" as="geometry" />
        </mxCell>
        <mxCell id="JV65rO91cUyTu4-_sWcS-48" value="Analyse (TODO)" style="rounded=0;whiteSpace=wrap;html=1;fontSize=24;" parent="VOlWO4rqHQWdw9jCDzSI-1" vertex="1">
          <mxGeometry x="1339.996153846154" y="163.77777777777777" width="208.44384615384615" height="89.33333333333334" as="geometry" />
        </mxCell>
        <mxCell id="JV65rO91cUyTu4-_sWcS-50" style="edgeStyle=orthogonalEdgeStyle;rounded=0;orthogonalLoop=1;jettySize=auto;html=1;exitX=0.933;exitY=0.971;exitDx=0;exitDy=0;entryX=0.5;entryY=0;entryDx=0;entryDy=0;exitPerimeter=0;fontSize=24;" parent="VOlWO4rqHQWdw9jCDzSI-1" source="JV65rO91cUyTu4-_sWcS-1" target="JV65rO91cUyTu4-_sWcS-48" edge="1">
          <mxGeometry relative="1" as="geometry" />
        </mxCell>
        <mxCell id="JV65rO91cUyTu4-_sWcS-51" style="edgeStyle=orthogonalEdgeStyle;rounded=0;orthogonalLoop=1;jettySize=auto;html=1;exitX=1;exitY=0.5;exitDx=0;exitDy=0;fontSize=24;" parent="VOlWO4rqHQWdw9jCDzSI-1" source="JV65rO91cUyTu4-_sWcS-22" edge="1">
          <mxGeometry relative="1" as="geometry">
            <mxPoint x="803.9976923076923" y="402" as="targetPoint" />
          </mxGeometry>
        </mxCell>
        <mxCell id="JV65rO91cUyTu4-_sWcS-52" style="edgeStyle=orthogonalEdgeStyle;rounded=0;orthogonalLoop=1;jettySize=auto;html=1;exitX=1;exitY=0.5;exitDx=0;exitDy=0;fontSize=24;" parent="VOlWO4rqHQWdw9jCDzSI-1" source="JV65rO91cUyTu4-_sWcS-23" edge="1">
          <mxGeometry relative="1" as="geometry">
            <mxPoint x="803.9976923076923" y="402" as="targetPoint" />
          </mxGeometry>
        </mxCell>
        <mxCell id="JV65rO91cUyTu4-_sWcS-54" style="edgeStyle=orthogonalEdgeStyle;rounded=0;orthogonalLoop=1;jettySize=auto;html=1;exitX=1;exitY=0.5;exitDx=0;exitDy=0;entryX=0.828;entryY=1.011;entryDx=0;entryDy=0;entryPerimeter=0;fontSize=24;" parent="VOlWO4rqHQWdw9jCDzSI-1" source="JV65rO91cUyTu4-_sWcS-12" target="JV65rO91cUyTu4-_sWcS-11" edge="1">
          <mxGeometry relative="1" as="geometry" />
        </mxCell>
        <mxCell id="JV65rO91cUyTu4-_sWcS-55" style="edgeStyle=orthogonalEdgeStyle;rounded=0;orthogonalLoop=1;jettySize=auto;html=1;exitX=1;exitY=0.5;exitDx=0;exitDy=0;entryX=0.833;entryY=1.011;entryDx=0;entryDy=0;entryPerimeter=0;fontSize=24;" parent="VOlWO4rqHQWdw9jCDzSI-1" source="JV65rO91cUyTu4-_sWcS-13" target="JV65rO91cUyTu4-_sWcS-11" edge="1">
          <mxGeometry relative="1" as="geometry" />
        </mxCell>
        <mxCell id="JV65rO91cUyTu4-_sWcS-56" style="edgeStyle=orthogonalEdgeStyle;rounded=0;orthogonalLoop=1;jettySize=auto;html=1;exitX=1;exitY=0.5;exitDx=0;exitDy=0;entryX=0.917;entryY=1.017;entryDx=0;entryDy=0;entryPerimeter=0;fontSize=24;" parent="VOlWO4rqHQWdw9jCDzSI-1" source="JV65rO91cUyTu4-_sWcS-10" target="JV65rO91cUyTu4-_sWcS-5" edge="1">
          <mxGeometry relative="1" as="geometry" />
        </mxCell>
      </root>
    </mxGraphModel>
  </diagram>
</mxfile>
